<svg width="750" height="750" viewBox="0 0 750 750" fill="none" xmlns="http://www.w3.org/2000/svg">
<path fill-rule="evenodd" clip-rule="evenodd" d="M572.388 401C497.277 401 436.388 340.111 436.388 265C436.388 206.856 472.875 157.235 524.201 137.783C503.405 132.058 481.504 129 458.888 129C323.302 129 213.388 238.914 213.388 374.5C213.388 510.086 323.302 620 458.888 620C594.474 620 704.388 510.086 704.388 374.5C704.388 354.958 702.104 335.948 697.79 317.725C677.194 366.65 628.802 401 572.388 401Z" fill="#DCC79A"/>
<path fill-rule="evenodd" clip-rule="evenodd" d="M39.0333 312.055L39.466 312.017C42.0395 311.743 44.5787 310.998 47.1107 310.254L47.111 310.254C48.6899 309.791 50.266 309.328 51.8458 308.981C58.2278 307.578 64.9583 307.361 71.4723 307.205C70.2267 295.986 70.6626 287.531 76.37 277.552C81.2308 269.054 81.6468 264.888 82.2231 259.117C82.5263 256.081 82.8739 252.6 83.9368 247.809C90.8304 216.737 117.675 252.538 117.215 276.356C119.042 276.322 120.939 276.245 122.877 276.168C130.676 275.855 139.125 275.516 146.198 277.741C147.739 261.663 152.245 239.629 169.937 234.175C178.596 237.599 186.504 247.354 190.165 255.854C197.169 272.111 189.861 286.975 180.715 300.379C198.484 324.775 238.196 339.051 266.419 343.563C271.335 344.35 276.661 344.277 281.796 344.206C283.284 344.186 284.756 344.166 286.197 344.167L471.485 344.14C473.574 344.143 475.689 344.114 477.816 344.084C483.459 344.006 489.183 343.926 494.694 344.444C568.959 351.424 623.131 402.929 639.388 474.025L639.451 474.301C640.86 480.463 642.318 486.84 642.292 493.182C682.958 449.411 710.513 398.804 696.223 338.173C692.2 321.102 684.389 304.143 673.856 290.129C671.758 287.336 669.463 284.702 667.169 282.07L667.168 282.069C664.622 279.148 662.078 276.228 659.808 273.097C748.348 304.279 752.96 430.173 696.219 492.747C692.666 496.665 689.619 499.222 686.789 501.597C682.658 505.064 678.989 508.142 674.888 514.5C664.888 530 645.974 537.874 645.974 537.874C625.633 547.074 602.78 546.615 580.668 546.17H580.666C576.034 546.077 571.433 545.985 566.895 545.982L118.655 545.949C117.586 545.95 115.47 545.989 112.751 546.038L112.746 546.038H112.745C102.054 546.234 82.0488 546.599 79.6188 545.513C72.872 542.499 77.316 512.998 80.2638 507.357C88.823 490.982 101.436 489.955 110.981 489.177C116.584 488.721 121.129 488.351 123.179 485.014L124.842 481.253C126.132 477.852 126.176 473.933 126.215 470.342C126.581 435.994 103.049 394.551 70.025 382.93C67.8041 382.148 65.5015 381.577 63.2021 381.006C60.3618 380.301 57.5264 379.598 54.8559 378.5C35.701 370.625 24.6128 351.883 18.7987 332.982C10.796 313.329 20.7008 308.722 39.0333 312.055Z" fill="#AE744A"/>
<path d="M98.9255 305.771L118.388 314" stroke="white" stroke-width="9" stroke-linecap="round"/>
<path fill-rule="evenodd" clip-rule="evenodd" d="M545.858 599.264L537.177 529.211C536.949 527.313 536.564 525.804 536.022 524.682C535.481 523.561 534.882 523 534.226 523H532.345C531.689 523 531.09 523.561 530.549 524.682C530.007 525.804 529.622 527.313 529.394 529.211L519.602 609.441C519.573 609.684 519.547 609.923 519.522 610.156C521.333 609.553 523.135 608.924 524.928 608.268L526.871 591.454H539.614L540.812 601.689C542.502 600.904 544.184 600.096 545.858 599.264ZM503.241 614.811C503.515 613.489 503.652 611.915 503.652 610.088V530.117C503.652 525.372 502.868 523 501.3 523C499.703 523 498.905 525.372 498.905 530.117V567.385C498.905 577.737 499.119 588.391 499.547 599.347H499.333L495.057 578.384L483.896 527.529C483.269 524.51 482.342 523 481.116 523H480.646C479.819 523 479.149 523.776 478.636 525.329C478.123 526.882 477.867 528.909 477.867 531.411V611.382C477.867 616.126 478.65 618.499 480.218 618.499C481.786 618.499 482.57 616.126 482.57 611.382V573.726C482.57 566.91 482.399 556.774 482.057 543.316C482.029 542.712 482.014 542.281 482.014 542.022H482.228L486.419 562.856L497.537 613.84C497.723 614.652 497.926 615.358 498.145 615.957C499.85 615.598 501.548 615.216 503.241 614.811ZM449.787 619.834C453.022 619.011 455.597 615.849 457.512 610.346C459.992 603.186 461.232 592.23 461.232 577.478V530.505C461.232 525.502 460.406 523 458.752 523C457.099 523 456.272 525.502 456.272 530.505V578.513C456.272 588.607 455.459 596.026 453.835 600.771C452.438 604.912 450.499 606.982 448.019 606.982C442.574 606.982 439.852 597.492 439.852 578.513V530.376C439.852 525.459 439.039 523 437.414 523C435.789 523 434.977 525.459 434.977 530.376V577.478C434.977 592.316 436.203 603.316 438.654 610.476C440.361 615.44 442.628 618.474 445.455 619.578C446.896 619.68 448.34 619.765 449.787 619.834ZM418.916 615.805C419.207 614.215 419.158 611.921 418.77 608.923L408.892 529.211C408.664 527.313 408.279 525.804 407.738 524.682C407.196 523.561 406.597 523 405.942 523H404.06C403.404 523 402.806 523.561 402.264 524.682C401.722 525.804 401.338 527.313 401.11 529.211L391.52 607.778C393.171 608.395 394.829 608.989 396.494 609.561L398.587 591.454H411.33L413.767 612.287C413.874 613.198 414.003 614.009 414.155 614.719C415.737 615.101 417.324 615.463 418.916 615.805ZM358.348 591.901V577.608H369.124C370.521 577.608 371.219 575.451 371.219 571.138C371.219 566.91 370.521 564.797 369.124 564.797H358.348V535.681H372.459C373.856 535.681 374.555 533.568 374.555 529.341C374.555 525.114 373.856 523 372.459 523H356.167C355.34 523 354.671 523.776 354.157 525.329C353.644 526.882 353.388 528.909 353.388 531.411V588.889C355.031 589.916 356.685 590.92 358.348 591.901ZM399.698 579.808H410.218L408.636 566.479C408.208 562.597 407.552 556.774 406.669 549.01C405.956 542.626 405.414 537.838 405.044 534.646H404.873C404.359 539.477 403.561 546.637 402.478 556.127C401.965 560.785 401.58 564.236 401.323 566.479L399.698 579.808ZM538.502 579.808H527.983L529.608 566.479C529.865 564.236 530.249 560.785 530.763 556.127C531.846 546.637 532.644 539.477 533.157 534.646H533.328C533.699 537.838 534.241 542.626 534.953 549.01C535.837 556.774 536.493 562.597 536.92 566.479L538.502 579.808Z" fill="#AE744A"/>
</svg>
